<?xml version="1.0" encoding="UTF-8"?>
<!DOCTYPE svg PUBLIC "-//W3C//DTD SVG 1.1//EN" "http://www.w3.org/Graphics/SVG/1.1/DTD/svg11.dtd">
<!-- Creator: CorelDRAW X6 -->
<svg xmlns="http://www.w3.org/2000/svg" xml:space="preserve" width="169.333mm" height="169.333mm" version="1.1" style="shape-rendering:geometricPrecision; text-rendering:geometricPrecision; image-rendering:optimizeQuality; fill-rule:evenodd; clip-rule:evenodd"
viewBox="0 0 16933 16933"
 xmlns:xlink="http://www.w3.org/1999/xlink">
 <defs>
  <style type="text/css">
   <![CDATA[
    .fil1 {fill:none}
    .fil2 {fill:none;fill-rule:nonzero}
    .fil3 {fill:#011627}
    .fil0 {fill:#011627;fill-rule:nonzero}
   ]]>
  </style>
    <clipPath id="id0" style="clip-rule:nonzero">
     <path d="M15563 7944l-7096 -6707 -7096 6707c40,1995 887,4047 2228,5578 1135,1297 2621,2215 4263,2399l0 -1292c0,-333 272,-605 605,-605l0 0c333,0 605,272 605,605l0 1292c1642,-184 3129,-1102 4263,-2399 1340,-1531 2188,-3583 2228,-5578zm-6858 -7437l7446 7037 110 104 0 149c0,2207 -923,4491 -2403,6182 -1398,1597 -3295,2672 -5390,2672 -2095,0 -3992,-1075 -5390,-2672 -1480,-1691 -2403,-3975 -2403,-6182l0 -149 110 -104 7446 -7037 238 -225 238 225z"/>
    </clipPath>
 </defs>
 <g id="Layer_x0020_1">
  <metadata id="CorelCorpID_0Corel-Layer"/>
  <g id="_588648776">
   <path class="fil0" d="M15563 7944l-7096 -6707 -7096 6707c40,1995 887,4047 2228,5578 1135,1297 2621,2215 4263,2399l0 -1292c0,-333 272,-605 605,-605l0 0c333,0 605,272 605,605l0 1292c1642,-184 3129,-1102 4263,-2399 1340,-1531 2188,-3583 2228,-5578zm-6858 -7437l7446 7037 110 104 0 149c0,2207 -923,4491 -2403,6182 -1398,1597 -3295,2672 -5390,2672 -2095,0 -3992,-1075 -5390,-2672 -1480,-1691 -2403,-3975 -2403,-6182l0 -149 110 -104 7446 -7037 238 -225 238 225z"/>
   <g style="clip-path:url(#id0)">
    <g>
     <rect class="fil1" x="-3100" y="-3370" width="29030" height="11307"/>
    </g>
   </g>
   <path class="fil2" d="M15563 7944l-7096 -6707 -7096 6707c40,1995 887,4047 2228,5578 1135,1297 2621,2215 4263,2399l0 -1292c0,-333 272,-605 605,-605l0 0c333,0 605,272 605,605l0 1292c1642,-184 3129,-1102 4263,-2399 1340,-1531 2188,-3583 2228,-5578zm-6858 -7437l7446 7037 110 104 0 149c0,2207 -923,4491 -2403,6182 -1398,1597 -3295,2672 -5390,2672 -2095,0 -3992,-1075 -5390,-2672 -1480,-1691 -2403,-3975 -2403,-6182l0 -149 110 -104 7446 -7037 238 -225 238 225z"/>
   <path class="fil3" d="M11637 6635l-3160 3311 -18 -1c-39,0 -78,4 -116,11l-2644 -1998c-175,-131 -426,-98 -559,79 -133,175 -99,427 78,560l2644 1998c25,308 283,550 598,550 331,0 600,-269 600,-600 0,-16 -1,-31 -2,-47l3159 -3311c152,-161 147,-413 -13,-566 -159,-153 -413,-146 -566,14z"/>
  </g>
 </g>
</svg>
